<mxfile host="app.diagrams.net" modified="2024-10-14T16:02:21.203Z" agent="Mozilla/5.0 (Windows NT 10.0; Win64; x64) AppleWebKit/537.36 (KHTML, like Gecko) Chrome/129.0.0.0 Safari/537.36" version="24.4.14" etag="H2UbTdrc-BkX_YDwRyub" type="github">
  <diagram name="第 1 页" id="ndGaAULTiaHud982uHHk">
    <mxGraphModel>
      <root>
        <mxCell id="0" />
        <mxCell id="1" parent="0" />
      </root>
    </mxGraphModel>
  </diagram>
</mxfile>
